<svg width="141" height="41" viewBox="0 0 141 41" fill="none" xmlns="http://www.w3.org/2000/svg">
<path d="M63.9072 40.1206C64.8276 40.1206 65.5449 39.7207 65.9766 38.9907H66.0781V40H67.1826V35.3154C67.1826 33.8936 66.2495 33.0366 64.5801 33.0366C63.1201 33.0366 62.0791 33.7603 61.9014 34.833L61.895 34.8711H62.9995L63.0059 34.8521C63.1836 34.3188 63.7231 34.0142 64.542 34.0142C65.564 34.0142 66.0781 34.4712 66.0781 35.3154V35.9375L64.1167 36.0581C62.5234 36.1533 61.6221 36.8579 61.6221 38.0767V38.0894C61.6221 39.3335 62.606 40.1206 63.9072 40.1206ZM62.752 38.064V38.0513C62.752 37.3721 63.209 37.0039 64.25 36.9404L66.0781 36.8262V37.4482C66.0781 38.4258 65.2593 39.1621 64.1357 39.1621C63.3423 39.1621 62.752 38.7559 62.752 38.064ZM69.2012 40H70.3057V35.7598C70.3057 34.7568 71.0547 34.0903 72.1084 34.0903C72.3496 34.0903 72.5591 34.1157 72.7876 34.1538V33.0811C72.6797 33.062 72.4448 33.0366 72.2354 33.0366C71.3086 33.0366 70.6675 33.4556 70.4072 34.1729H70.3057V33.1572H69.2012V40ZM76.7612 40.1206C78.4053 40.1206 79.3257 39.2383 79.605 38.0005L79.6177 37.9307L78.5259 37.937L78.5132 37.9751C78.2593 38.7368 77.6753 39.1431 76.7549 39.1431C75.5361 39.1431 74.749 38.1338 74.749 36.5596V36.5469C74.749 35.0044 75.5234 34.0142 76.7549 34.0142C77.7388 34.0142 78.3481 34.5601 78.5195 35.2329L78.5259 35.252H79.624L79.6177 35.2139C79.4146 33.9951 78.418 33.0366 76.7549 33.0366C74.8379 33.0366 73.6191 34.4204 73.6191 36.5469V36.5596C73.6191 38.7305 74.8442 40.1206 76.7612 40.1206ZM81.2998 40H82.4043V35.9502C82.4043 34.7505 83.0962 34.0142 84.188 34.0142C85.2798 34.0142 85.7876 34.6045 85.7876 35.8359V40H86.8921V35.5693C86.8921 33.9443 86.0352 33.0366 84.499 33.0366C83.4897 33.0366 82.8486 33.4619 82.5059 34.1855H82.4043V30.4404H81.2998V40ZM89.4756 31.8369C89.8945 31.8369 90.2373 31.4941 90.2373 31.0752C90.2373 30.6562 89.8945 30.3135 89.4756 30.3135C89.0566 30.3135 88.7139 30.6562 88.7139 31.0752C88.7139 31.4941 89.0566 31.8369 89.4756 31.8369ZM88.917 40H90.0215V33.1572H88.917V40ZM94.5347 40.0508C94.7505 40.0508 94.96 40.0254 95.1758 39.9873V39.0479C94.9727 39.0669 94.8647 39.0732 94.668 39.0732C93.957 39.0732 93.6777 38.7495 93.6777 37.9434V34.0713H95.1758V33.1572H93.6777V31.3862H92.5352V33.1572H91.4561V34.0713H92.5352V38.2227C92.5352 39.5303 93.1255 40.0508 94.5347 40.0508ZM99.5176 40.1206C101.13 40.1206 102.107 39.2065 102.342 38.2798L102.355 38.229H101.25L101.225 38.2861C101.041 38.6987 100.47 39.1367 99.543 39.1367C98.3242 39.1367 97.5435 38.3115 97.5117 36.896H102.438V36.4644C102.438 34.4204 101.308 33.0366 99.4478 33.0366C97.5879 33.0366 96.3818 34.4839 96.3818 36.5977V36.604C96.3818 38.7495 97.5625 40.1206 99.5176 40.1206ZM99.4414 34.0205C100.451 34.0205 101.2 34.6616 101.314 36.0137H97.5308C97.6514 34.7124 98.4258 34.0205 99.4414 34.0205ZM106.951 40.1206C108.595 40.1206 109.515 39.2383 109.794 38.0005L109.807 37.9307L108.715 37.937L108.703 37.9751C108.449 38.7368 107.865 39.1431 106.944 39.1431C105.726 39.1431 104.938 38.1338 104.938 36.5596V36.5469C104.938 35.0044 105.713 34.0142 106.944 34.0142C107.928 34.0142 108.538 34.5601 108.709 35.2329L108.715 35.252H109.813L109.807 35.2139C109.604 33.9951 108.607 33.0366 106.944 33.0366C105.027 33.0366 103.809 34.4204 103.809 36.5469V36.5596C103.809 38.7305 105.034 40.1206 106.951 40.1206ZM113.984 40.0508C114.2 40.0508 114.409 40.0254 114.625 39.9873V39.0479C114.422 39.0669 114.314 39.0732 114.117 39.0732C113.406 39.0732 113.127 38.7495 113.127 37.9434V34.0713H114.625V33.1572H113.127V31.3862H111.984V33.1572H110.905V34.0713H111.984V38.2227C111.984 39.5303 112.575 40.0508 113.984 40.0508ZM118.567 40.1206C119.57 40.1206 120.262 39.708 120.598 38.978H120.7V40H121.804V33.1572H120.7V37.207C120.7 38.4067 120.059 39.1431 118.853 39.1431C117.761 39.1431 117.316 38.5527 117.316 37.3213V33.1572H116.212V37.5879C116.212 39.2065 117.012 40.1206 118.567 40.1206ZM123.867 40H124.972V35.7598C124.972 34.7568 125.721 34.0903 126.774 34.0903C127.016 34.0903 127.225 34.1157 127.454 34.1538V33.0811C127.346 33.062 127.111 33.0366 126.901 33.0366C125.975 33.0366 125.333 33.4556 125.073 34.1729H124.972V33.1572H123.867V40ZM131.421 40.1206C133.033 40.1206 134.011 39.2065 134.246 38.2798L134.258 38.229H133.154L133.128 38.2861C132.944 38.6987 132.373 39.1367 131.446 39.1367C130.228 39.1367 129.447 38.3115 129.415 36.896H134.341V36.4644C134.341 34.4204 133.211 33.0366 131.351 33.0366C129.491 33.0366 128.285 34.4839 128.285 36.5977V36.604C128.285 38.7495 129.466 40.1206 131.421 40.1206ZM131.345 34.0205C132.354 34.0205 133.103 34.6616 133.217 36.0137H129.434C129.555 34.7124 130.329 34.0205 131.345 34.0205Z" fill="black" fill-opacity="0.5"/>
<path d="M11.4375 24H1.98438V1.45312H11.3438C13.3958 1.45312 15.0312 1.96354 16.25 2.98438C17.4688 4.00521 18.0781 5.36979 18.0781 7.07812C18.0781 8.28646 17.6823 9.35938 16.8906 10.2969C16.099 11.2344 15.125 11.7969 13.9688 11.9844V12.1094C15.5104 12.2552 16.7604 12.8333 17.7188 13.8438C18.6875 14.8542 19.1719 16.1042 19.1719 17.5938C19.1719 19.5833 18.4844 21.151 17.1094 22.2969C15.7344 23.4323 13.8438 24 11.4375 24ZM6.01562 4.59375V10.9531H9.70312C11.1094 10.9531 12.1927 10.6719 12.9531 10.1094C13.7135 9.53646 14.0938 8.72396 14.0938 7.67188C14.0938 6.69271 13.7656 5.9375 13.1094 5.40625C12.4635 4.86458 11.5365 4.59375 10.3281 4.59375H6.01562ZM6.01562 20.8594H10.5156C11.9948 20.8594 13.1198 20.5573 13.8906 19.9531C14.6719 19.349 15.0625 18.4688 15.0625 17.3125C15.0625 16.1667 14.6615 15.2969 13.8594 14.7031C13.0677 14.1094 11.8958 13.8125 10.3438 13.8125H6.01562V20.8594ZM28.7969 10.1094C27.7135 10.1094 26.8073 10.4844 26.0781 11.2344C25.3594 11.974 24.9583 12.9271 24.875 14.0938H32.6094C32.5677 12.9167 32.1979 11.9583 31.5 11.2188C30.8021 10.4792 29.901 10.1094 28.7969 10.1094ZM32.625 19.0469H36.2656C36.0156 20.6198 35.2188 21.8958 33.875 22.875C32.5312 23.8438 30.8854 24.3281 28.9375 24.3281C26.4583 24.3281 24.5104 23.5677 23.0938 22.0469C21.6771 20.5156 20.9688 18.4271 20.9688 15.7812C20.9688 13.1562 21.6719 11.0521 23.0781 9.46875C24.4948 7.88542 26.3958 7.09375 28.7812 7.09375C31.125 7.09375 32.9844 7.84896 34.3594 9.35938C35.7344 10.8594 36.4219 12.8698 36.4219 15.3906V16.6562H24.8438V16.8906C24.8438 18.224 25.2188 19.2969 25.9688 20.1094C26.7292 20.9219 27.7448 21.3281 29.0156 21.3281C29.9115 21.3281 30.6823 21.125 31.3281 20.7188C31.9844 20.3021 32.4167 19.7448 32.625 19.0469ZM38.9375 24V7.4375H42.6719V10.2812H42.75C43.2083 9.28125 43.875 8.50521 44.75 7.95312C45.6354 7.40104 46.7031 7.125 47.9531 7.125C49.7656 7.125 51.1719 7.67188 52.1719 8.76562C53.1823 9.85938 53.6875 11.3698 53.6875 13.2969V24H49.7969V14.0781C49.7969 12.8906 49.5156 11.9844 48.9531 11.3594C48.401 10.7344 47.5781 10.4219 46.4844 10.4219C45.3698 10.4219 44.4792 10.7865 43.8125 11.5156C43.1562 12.2448 42.8281 13.2083 42.8281 14.4062V24H38.9375ZM56.9219 24V1.45312H60.7656V10.2812H60.8438C61.2917 9.27083 61.9635 8.49479 62.8594 7.95312C63.7552 7.40104 64.8281 7.125 66.0781 7.125C67.8906 7.125 69.3073 7.68229 70.3281 8.79688C71.3594 9.90104 71.875 11.4115 71.875 13.3281V24H67.9844V14.125C67.9844 12.9479 67.6927 12.0365 67.1094 11.3906C66.5365 10.7448 65.6927 10.4219 64.5781 10.4219C63.4115 10.4219 62.4896 10.7917 61.8125 11.5312C61.1458 12.2708 60.8125 13.2552 60.8125 14.4844V24H56.9219ZM88.1719 22.0312C86.724 23.5625 84.776 24.3281 82.3281 24.3281C79.8802 24.3281 77.9323 23.5625 76.4844 22.0312C75.0365 20.4896 74.3125 18.3854 74.3125 15.7188C74.3125 13.0625 75.0417 10.9635 76.5 9.42188C77.9583 7.86979 79.901 7.09375 82.3281 7.09375C84.7656 7.09375 86.7083 7.86979 88.1562 9.42188C89.6146 10.9635 90.3438 13.0625 90.3438 15.7188C90.3438 18.3854 89.6198 20.4896 88.1719 22.0312ZM79.3594 19.7969C80.0885 20.7656 81.0781 21.25 82.3281 21.25C83.5781 21.25 84.5677 20.7656 85.2969 19.7969C86.026 18.8281 86.3906 17.4688 86.3906 15.7188C86.3906 13.9792 86.026 12.625 85.2969 11.6562C84.5677 10.6771 83.5781 10.1875 82.3281 10.1875C81.0885 10.1875 80.099 10.6771 79.3594 11.6562C78.6302 12.625 78.2656 13.9792 78.2656 15.7188C78.2656 17.4688 78.6302 18.8281 79.3594 19.7969ZM92.8438 24V7.4375H96.5781V10.3125H96.6562C97.0208 9.33333 97.6198 8.55729 98.4531 7.98438C99.2865 7.41146 100.26 7.125 101.375 7.125C102.542 7.125 103.526 7.41667 104.328 8C105.141 8.57292 105.698 9.39062 106 10.4531H106.094C106.49 9.43229 107.146 8.625 108.062 8.03125C108.99 7.42708 110.052 7.125 111.25 7.125C112.885 7.125 114.193 7.63021 115.172 8.64062C116.161 9.65104 116.656 10.9844 116.656 12.6406V24H112.766V13.5938C112.766 12.5729 112.505 11.7865 111.984 11.2344C111.474 10.6823 110.745 10.4062 109.797 10.4062C108.859 10.4062 108.099 10.7188 107.516 11.3438C106.932 11.9688 106.641 12.776 106.641 13.7656V24H102.859V13.3906C102.859 12.474 102.594 11.75 102.062 11.2188C101.542 10.6771 100.828 10.4062 99.9219 10.4062C98.9844 10.4062 98.2188 10.7344 97.625 11.3906C97.0312 12.0365 96.7344 12.8594 96.7344 13.8594V24H92.8438ZM126.922 10.1094C125.839 10.1094 124.932 10.4844 124.203 11.2344C123.484 11.974 123.083 12.9271 123 14.0938H130.734C130.693 12.9167 130.323 11.9583 129.625 11.2188C128.927 10.4792 128.026 10.1094 126.922 10.1094ZM130.75 19.0469H134.391C134.141 20.6198 133.344 21.8958 132 22.875C130.656 23.8438 129.01 24.3281 127.062 24.3281C124.583 24.3281 122.635 23.5677 121.219 22.0469C119.802 20.5156 119.094 18.4271 119.094 15.7812C119.094 13.1562 119.797 11.0521 121.203 9.46875C122.62 7.88542 124.521 7.09375 126.906 7.09375C129.25 7.09375 131.109 7.84896 132.484 9.35938C133.859 10.8594 134.547 12.8698 134.547 15.3906V16.6562H122.969V16.8906C122.969 18.224 123.344 19.2969 124.094 20.1094C124.854 20.9219 125.87 21.3281 127.141 21.3281C128.036 21.3281 128.807 21.125 129.453 20.7188C130.109 20.3021 130.542 19.7448 130.75 19.0469Z" fill="black"/>
</svg>
